# xmcd
#
# Track frame offsets:
#	150
#	17596
#	40721
#	68740
#	88173
#	110029
#	129373
#	150224
#	168431
#	188186
#	207723
#	229969
#	247419
#	270154
#	289741
#	309012
#	330215
#
# Disc length: 4630 seconds
#
# Revision: 0
# Processed by: cddbd v1.5.2PL0 Copyright (c) Steve Scherf et al.
# Submitted via: dBpowerAMP V4.0
#
DISCID=e2121411
DTITLE=Various Artist - salsa
DYEAR=1900
DGENRE=
TTITLE0=uistdg - todas
TTITLE1=oñifjbg - 
TTITLE2=bfh - 
TTITLE3=sdfbh - 
TTITLE4=sdfbn - 
TTITLE5=sdfn - 
TTITLE6=sdfn - 
TTITLE7=Track08dndg - 
TTITLE8=sdgnd - 
TTITLE9=dgn - 
TTITLE10=gfn - 
TTITLE11=dgf - 
TTITLE12=ng - 
TTITLE13=gn - 
TTITLE14=nd - 
TTITLE15=dn - 
TTITLE16=dn - 
EXTD=
EXTT0=
EXTT1=
EXTT2=
EXTT3=
EXTT4=
EXTT5=
EXTT6=
EXTT7=
EXTT8=
EXTT9=
EXTT10=
EXTT11=
EXTT12=
EXTT13=
EXTT14=
EXTT15=
EXTT16=
PLAYORDER=
